<?xml version="1.0" encoding="UTF-8" standalone="no"?>
<!DOCTYPE svg PUBLIC "-//W3C//DTD SVG 1.1//EN"
 "http://www.w3.org/Graphics/SVG/1.1/DTD/svg11.dtd">
<!-- Generated by graphviz version 2.38.0 (20140413.2041)
 -->
<!-- Title: G Pages: 1 -->
<svg width="816pt" height="978pt"
 viewBox="0.00 0.00 816.00 978.00" xmlns="http://www.w3.org/2000/svg" xmlns:xlink="http://www.w3.org/1999/xlink">
<g id="graph0" class="graph" transform="scale(1 1) rotate(0) translate(4 974)">
<title>G</title>
<polygon fill="white" stroke="none" points="-4,4 -4,-974 812,-974 812,4 -4,4"/>
<g id="clust1" class="cluster"><title>cluster_Global</title>
<path fill="none" stroke="gray" d="M20,-44C20,-44 788,-44 788,-44 794,-44 800,-50 800,-56 800,-56 800,-950 800,-950 800,-956 794,-962 788,-962 788,-962 20,-962 20,-962 14,-962 8,-956 8,-950 8,-950 8,-56 8,-56 8,-50 14,-44 20,-44"/>
<text text-anchor="middle" x="404" y="-949.2" font-family="Times New Roman,serif" font-size="11.00" fill="gray">Global</text>
</g>
<g id="clust2" class="cluster"><title>cluster_\w3c</title>
<path fill="none" stroke="gray" d="M28,-52C28,-52 780,-52 780,-52 786,-52 792,-58 792,-64 792,-64 792,-922 792,-922 792,-928 786,-934 780,-934 780,-934 28,-934 28,-934 22,-934 16,-928 16,-922 16,-922 16,-64 16,-64 16,-58 22,-52 28,-52"/>
<text text-anchor="middle" x="404" y="-921.2" font-family="Times New Roman,serif" font-size="11.00" fill="gray">w3c</text>
</g>
<g id="clust3" class="cluster"><title>cluster_\w3c\dom</title>
<path fill="none" stroke="gray" d="M36,-294C36,-294 772,-294 772,-294 778,-294 784,-300 784,-306 784,-306 784,-894 784,-894 784,-900 778,-906 772,-906 772,-906 36,-906 36,-906 30,-906 24,-900 24,-894 24,-894 24,-306 24,-306 24,-300 30,-294 36,-294"/>
<text text-anchor="middle" x="404" y="-893.2" font-family="Times New Roman,serif" font-size="11.00" fill="gray">dom</text>
</g>
<g id="clust4" class="cluster"><title>cluster_\w3c\FileAPI</title>
<path fill="none" stroke="gray" d="M687.5,-160C687.5,-160 733.5,-160 733.5,-160 739.5,-160 745.5,-166 745.5,-172 745.5,-172 745.5,-274 745.5,-274 745.5,-280 739.5,-286 733.5,-286 733.5,-286 687.5,-286 687.5,-286 681.5,-286 675.5,-280 675.5,-274 675.5,-274 675.5,-172 675.5,-172 675.5,-166 681.5,-160 687.5,-160"/>
<text text-anchor="middle" x="710.5" y="-273.2" font-family="Times New Roman,serif" font-size="11.00" fill="gray">FileAPI</text>
</g>
<!-- \\w3c\\dom\\Attr -->
<g id="node1" class="node"><title>\\w3c\\dom\\Attr</title>
<polygon fill="none" stroke="black" points="264,-770 210,-770 210,-734 264,-734 264,-770"/>
<text text-anchor="middle" x="237" y="-749.2" font-family="Courier,monospace" font-size="11.00">Attr</text>
</g>
<!-- \\w3c\\dom\\Node -->
<g id="node14" class="node"><title>\\w3c\\dom\\Node</title>
<polygon fill="none" stroke="black" points="86,-608 32,-608 32,-572 86,-572 86,-608"/>
<text text-anchor="middle" x="59" y="-587.2" font-family="Courier,monospace" font-size="11.00">Node</text>
</g>
<!-- \\w3c\\dom\\Attr&#45;&gt;\\w3c\\dom\\Node -->
<g id="edge1" class="edge"><title>\\w3c\\dom\\Attr&#45;&gt;\\w3c\\dom\\Node</title>
<path fill="none" stroke="black" d="M209.886,-747.153C193.764,-743.196 173.309,-736.352 158,-725 119.165,-696.203 89.3065,-647.558 73.2307,-617.195"/>
<polygon fill="none" stroke="black" points="76.1968,-615.311 68.5017,-608.028 69.9758,-618.52 76.1968,-615.311"/>
</g>
<!-- \\w3c\\dom\\CDATASection -->
<g id="node2" class="node"><title>\\w3c\\dom\\CDATASection</title>
<polygon fill="none" stroke="black" points="759.5,-878 661.5,-878 661.5,-842 759.5,-842 759.5,-878"/>
<text text-anchor="middle" x="710.5" y="-857.2" font-family="Courier,monospace" font-size="11.00">CDATASection</text>
</g>
<!-- \\w3c\\dom\\Text -->
<g id="node17" class="node"><title>\\w3c\\dom\\Text</title>
<polygon fill="none" stroke="black" points="507.5,-824 453.5,-824 453.5,-788 507.5,-788 507.5,-824"/>
<text text-anchor="middle" x="480.5" y="-803.2" font-family="Courier,monospace" font-size="11.00">Text</text>
</g>
<!-- \\w3c\\dom\\CDATASection&#45;&gt;\\w3c\\dom\\Text -->
<g id="edge2" class="edge"><title>\\w3c\\dom\\CDATASection&#45;&gt;\\w3c\\dom\\Text</title>
<path fill="none" stroke="black" d="M661.426,-848.614C618.37,-838.417 556.199,-823.692 517.357,-814.492"/>
<polygon fill="none" stroke="black" points="518.071,-811.065 507.533,-812.166 516.458,-817.876 518.071,-811.065"/>
</g>
<!-- \\w3c\\dom\\CharacterData -->
<g id="node3" class="node"><title>\\w3c\\dom\\CharacterData</title>
<polygon fill="none" stroke="black" points="289,-716 185,-716 185,-680 289,-680 289,-716"/>
<text text-anchor="middle" x="237" y="-695.2" font-family="Courier,monospace" font-size="11.00">CharacterData</text>
</g>
<!-- \\w3c\\dom\\CharacterData&#45;&gt;\\w3c\\dom\\Node -->
<g id="edge3" class="edge"><title>\\w3c\\dom\\CharacterData&#45;&gt;\\w3c\\dom\\Node</title>
<path fill="none" stroke="black" d="M184.918,-683.271C175.702,-679.795 166.37,-675.704 158,-671 131.06,-655.861 104.276,-633.055 85.5354,-615.496"/>
<polygon fill="none" stroke="black" points="87.6716,-612.697 78.0188,-608.33 82.8413,-617.763 87.6716,-612.697"/>
</g>
<!-- \\w3c\\dom\\Comment -->
<g id="node4" class="node"><title>\\w3c\\dom\\Comment</title>
<polygon fill="none" stroke="black" points="512.5,-716 448.5,-716 448.5,-680 512.5,-680 512.5,-716"/>
<text text-anchor="middle" x="480.5" y="-695.2" font-family="Courier,monospace" font-size="11.00">Comment</text>
</g>
<!-- \\w3c\\dom\\Comment&#45;&gt;\\w3c\\dom\\CharacterData -->
<g id="edge4" class="edge"><title>\\w3c\\dom\\Comment&#45;&gt;\\w3c\\dom\\CharacterData</title>
<path fill="none" stroke="black" d="M448.422,-698C410.918,-698 346.973,-698 299.394,-698"/>
<polygon fill="none" stroke="black" points="299.202,-694.5 289.202,-698 299.202,-701.5 299.202,-694.5"/>
</g>
<!-- \\w3c\\dom\\Document -->
<g id="node5" class="node"><title>\\w3c\\dom\\Document</title>
<polygon fill="none" stroke="black" points="272.5,-662 201.5,-662 201.5,-626 272.5,-626 272.5,-662"/>
<text text-anchor="middle" x="237" y="-641.2" font-family="Courier,monospace" font-size="11.00">Document</text>
</g>
<!-- \\w3c\\dom\\Document&#45;&gt;\\w3c\\dom\\Node -->
<g id="edge5" class="edge"><title>\\w3c\\dom\\Document&#45;&gt;\\w3c\\dom\\Node</title>
<path fill="none" stroke="black" d="M201.228,-633.331C170.806,-623.997 126.791,-610.493 96.0078,-601.048"/>
<polygon fill="none" stroke="black" points="96.7013,-597.6 86.1145,-598.012 94.648,-604.292 96.7013,-597.6"/>
</g>
<!-- \\w3c\\dom\\DocumentFragment -->
<g id="node6" class="node"><title>\\w3c\\dom\\DocumentFragment</title>
<polygon fill="none" stroke="black" points="299.5,-608 174.5,-608 174.5,-572 299.5,-572 299.5,-608"/>
<text text-anchor="middle" x="237" y="-587.2" font-family="Courier,monospace" font-size="11.00">DocumentFragment</text>
</g>
<!-- \\w3c\\dom\\DocumentFragment&#45;&gt;\\w3c\\dom\\Node -->
<g id="edge6" class="edge"><title>\\w3c\\dom\\DocumentFragment&#45;&gt;\\w3c\\dom\\Node</title>
<path fill="none" stroke="black" d="M174.444,-590C148.429,-590 119.015,-590 96.5218,-590"/>
<polygon fill="none" stroke="black" points="96.3966,-586.5 86.3966,-590 96.3965,-593.5 96.3966,-586.5"/>
</g>
<!-- \\w3c\\dom\\DocumentType -->
<g id="node7" class="node"><title>\\w3c\\dom\\DocumentType</title>
<polygon fill="none" stroke="black" points="286,-554 188,-554 188,-518 286,-518 286,-554"/>
<text text-anchor="middle" x="237" y="-533.2" font-family="Courier,monospace" font-size="11.00">DocumentType</text>
</g>
<!-- \\w3c\\dom\\DocumentType&#45;&gt;\\w3c\\dom\\Node -->
<g id="edge7" class="edge"><title>\\w3c\\dom\\DocumentType&#45;&gt;\\w3c\\dom\\Node</title>
<path fill="none" stroke="black" d="M187.907,-550.756C158.847,-559.672 122.421,-570.848 95.8816,-578.991"/>
<polygon fill="none" stroke="black" points="94.7636,-575.673 86.2301,-581.952 96.8169,-582.365 94.7636,-575.673"/>
</g>
<!-- \\w3c\\dom\\DOMConfiguration -->
<g id="node8" class="node"><title>\\w3c\\dom\\DOMConfiguration</title>
<polygon fill="none" stroke="black" points="773,-824 648,-824 648,-788 773,-788 773,-824"/>
<text text-anchor="middle" x="710.5" y="-803.2" font-family="Courier,monospace" font-size="11.00">DOMConfiguration</text>
</g>
<!-- \\w3c\\dom\\DOMException -->
<g id="node9" class="node"><title>\\w3c\\dom\\DOMException</title>
<polygon fill="none" stroke="black" points="759.5,-770 661.5,-770 661.5,-734 759.5,-734 759.5,-770"/>
<text text-anchor="middle" x="710.5" y="-749.2" font-family="Courier,monospace" font-size="11.00">DOMException</text>
</g>
<!-- \\Throwable -->
<g id="node32" class="node"><title>\\Throwable</title>
<ellipse fill="none" stroke="black" cx="480.5" cy="-18" rx="51.9908" ry="18"/>
<text text-anchor="middle" x="480.5" y="-14.3" font-family="Times New Roman,serif" font-size="14.00" fill="gray">\Throwable</text>
</g>
<!-- \\w3c\\dom\\DOMException&#45;&gt;\\Throwable -->
<g id="edge8" class="edge"><title>\\w3c\\dom\\DOMException&#45;&gt;\\Throwable</title>
<path fill="none" stroke="black" d="M661.299,-738.846C655.01,-735.275 649.278,-730.744 645,-725 464.26,-482.325 763.255,-283.29 573,-48 564.624,-37.6411 552.596,-30.8244 540.002,-26.3483"/>
<polygon fill="none" stroke="black" points="540.9,-22.9625 530.313,-23.3618 538.838,-29.652 540.9,-22.9625"/>
</g>
<!-- \\w3c\\dom\\DOMImplementation -->
<g id="node10" class="node"><title>\\w3c\\dom\\DOMImplementation</title>
<polygon fill="none" stroke="black" points="776,-716 645,-716 645,-680 776,-680 776,-716"/>
<text text-anchor="middle" x="710.5" y="-695.2" font-family="Courier,monospace" font-size="11.00">DOMImplementation</text>
</g>
<!-- \\w3c\\dom\\Element -->
<g id="node11" class="node"><title>\\w3c\\dom\\Element</title>
<polygon fill="none" stroke="black" points="269,-500 205,-500 205,-464 269,-464 269,-500"/>
<text text-anchor="middle" x="237" y="-479.2" font-family="Courier,monospace" font-size="11.00">Element</text>
</g>
<!-- \\w3c\\dom\\Element&#45;&gt;\\w3c\\dom\\Node -->
<g id="edge9" class="edge"><title>\\w3c\\dom\\Element&#45;&gt;\\w3c\\dom\\Node</title>
<path fill="none" stroke="black" d="M204.912,-489.971C190.165,-494.441 172.616,-500.786 158,-509 131.06,-524.139 104.276,-546.945 85.5354,-564.504"/>
<polygon fill="none" stroke="black" points="82.8413,-562.237 78.0188,-571.67 87.6716,-567.303 82.8413,-562.237"/>
</g>
<!-- \\w3c\\dom\\Entity -->
<g id="node12" class="node"><title>\\w3c\\dom\\Entity</title>
<polygon fill="none" stroke="black" points="265.5,-446 208.5,-446 208.5,-410 265.5,-410 265.5,-446"/>
<text text-anchor="middle" x="237" y="-425.2" font-family="Courier,monospace" font-size="11.00">Entity</text>
</g>
<!-- \\w3c\\dom\\Entity&#45;&gt;\\w3c\\dom\\Node -->
<g id="edge10" class="edge"><title>\\w3c\\dom\\Entity&#45;&gt;\\w3c\\dom\\Node</title>
<path fill="none" stroke="black" d="M208.42,-433.212C192.539,-437.219 172.849,-443.989 158,-455 119.165,-483.797 89.3065,-532.442 73.2307,-562.805"/>
<polygon fill="none" stroke="black" points="69.9758,-561.48 68.5017,-571.972 76.1968,-564.689 69.9758,-561.48"/>
</g>
<!-- \\w3c\\dom\\EntityReference -->
<g id="node13" class="node"><title>\\w3c\\dom\\EntityReference</title>
<polygon fill="none" stroke="black" points="296,-392 178,-392 178,-356 296,-356 296,-392"/>
<text text-anchor="middle" x="237" y="-371.2" font-family="Courier,monospace" font-size="11.00">EntityReference</text>
</g>
<!-- \\w3c\\dom\\EntityReference&#45;&gt;\\w3c\\dom\\Node -->
<g id="edge11" class="edge"><title>\\w3c\\dom\\EntityReference&#45;&gt;\\w3c\\dom\\Node</title>
<path fill="none" stroke="black" d="M177.882,-388.45C170.709,-391.812 163.854,-395.939 158,-401 107.456,-444.695 79.4291,-520.917 67.3212,-561.945"/>
<polygon fill="none" stroke="black" points="63.8834,-561.238 64.5168,-571.814 70.6169,-563.152 63.8834,-561.238"/>
</g>
<!-- \\w3c\\dom\\Notation -->
<g id="node15" class="node"><title>\\w3c\\dom\\Notation</title>
<polygon fill="none" stroke="black" points="272.5,-338 201.5,-338 201.5,-302 272.5,-302 272.5,-338"/>
<text text-anchor="middle" x="237" y="-317.2" font-family="Courier,monospace" font-size="11.00">Notation</text>
</g>
<!-- \\w3c\\dom\\Notation&#45;&gt;\\w3c\\dom\\Node -->
<g id="edge12" class="edge"><title>\\w3c\\dom\\Notation&#45;&gt;\\w3c\\dom\\Node</title>
<path fill="none" stroke="black" d="M201.159,-325.416C186.306,-329.272 169.733,-335.84 158,-347 95.3557,-406.582 71.7122,-511.628 63.688,-561.794"/>
<polygon fill="none" stroke="black" points="60.1927,-561.501 62.1647,-571.911 67.1147,-562.544 60.1927,-561.501"/>
</g>
<!-- \\w3c\\dom\\ProcessingInstruction -->
<g id="node16" class="node"><title>\\w3c\\dom\\ProcessingInstruction</title>
<polygon fill="none" stroke="black" points="316,-878 158,-878 158,-842 316,-842 316,-878"/>
<text text-anchor="middle" x="237" y="-857.2" font-family="Courier,monospace" font-size="11.00">ProcessingInstruction</text>
</g>
<!-- \\w3c\\dom\\ProcessingInstruction&#45;&gt;\\w3c\\dom\\Node -->
<g id="edge13" class="edge"><title>\\w3c\\dom\\ProcessingInstruction&#45;&gt;\\w3c\\dom\\Node</title>
<path fill="none" stroke="black" d="M169.727,-841.878C165.499,-839.3 161.53,-836.358 158,-833 95.3557,-773.418 71.7122,-668.372 63.688,-618.206"/>
<polygon fill="none" stroke="black" points="67.1147,-617.456 62.1647,-608.089 60.1927,-618.499 67.1147,-617.456"/>
</g>
<!-- \\w3c\\dom\\Text&#45;&gt;\\w3c\\dom\\CharacterData -->
<g id="edge14" class="edge"><title>\\w3c\\dom\\Text&#45;&gt;\\w3c\\dom\\CharacterData</title>
<path fill="none" stroke="black" d="M453.359,-791.761C421.474,-774.696 365.672,-745.803 316,-725 310.496,-722.695 304.719,-720.425 298.903,-718.241"/>
<polygon fill="none" stroke="black" points="299.714,-714.81 289.12,-714.653 297.304,-721.382 299.714,-714.81"/>
</g>
<!-- \\w3c\\dom\\TypeInfo -->
<g id="node18" class="node"><title>\\w3c\\dom\\TypeInfo</title>
<polygon fill="none" stroke="black" points="746,-662 675,-662 675,-626 746,-626 746,-662"/>
<text text-anchor="middle" x="710.5" y="-641.2" font-family="Courier,monospace" font-size="11.00">TypeInfo</text>
</g>
<!-- \\w3c\\dom\\UserDataHandler -->
<g id="node19" class="node"><title>\\w3c\\dom\\UserDataHandler</title>
<polygon fill="none" stroke="black" points="769.5,-608 651.5,-608 651.5,-572 769.5,-572 769.5,-608"/>
<text text-anchor="middle" x="710.5" y="-587.2" font-family="Courier,monospace" font-size="11.00">UserDataHandler</text>
</g>
<!-- \\w3c\\dom\\XPathEvaluator -->
<g id="node20" class="node"><title>\\w3c\\dom\\XPathEvaluator</title>
<polygon fill="none" stroke="black" points="766,-554 655,-554 655,-518 766,-518 766,-554"/>
<text text-anchor="middle" x="710.5" y="-533.2" font-family="Courier,monospace" font-size="11.00">XPathEvaluator</text>
</g>
<!-- \\w3c\\dom\\XPathException -->
<g id="node21" class="node"><title>\\w3c\\dom\\XPathException</title>
<polygon fill="none" stroke="black" points="766,-500 655,-500 655,-464 766,-464 766,-500"/>
<text text-anchor="middle" x="710.5" y="-479.2" font-family="Courier,monospace" font-size="11.00">XPathException</text>
</g>
<!-- \\w3c\\dom\\XPathException&#45;&gt;\\Throwable -->
<g id="edge15" class="edge"><title>\\w3c\\dom\\XPathException&#45;&gt;\\Throwable</title>
<path fill="none" stroke="black" d="M654.813,-464.229C651.148,-461.565 647.806,-458.507 645,-455 530.248,-311.554 693.37,-186.765 573,-48 564.271,-37.9368 552.11,-31.2317 539.5,-26.7691"/>
<polygon fill="none" stroke="black" points="540.407,-23.386 529.819,-23.7752 538.339,-30.0735 540.407,-23.386"/>
</g>
<!-- \\w3c\\dom\\XPathExpression -->
<g id="node22" class="node"><title>\\w3c\\dom\\XPathExpression</title>
<polygon fill="none" stroke="black" points="769.5,-446 651.5,-446 651.5,-410 769.5,-410 769.5,-446"/>
<text text-anchor="middle" x="710.5" y="-425.2" font-family="Courier,monospace" font-size="11.00">XPathExpression</text>
</g>
<!-- \\w3c\\dom\\XPathNamespace -->
<g id="node23" class="node"><title>\\w3c\\dom\\XPathNamespace</title>
<polygon fill="none" stroke="black" points="292.5,-824 181.5,-824 181.5,-788 292.5,-788 292.5,-824"/>
<text text-anchor="middle" x="237" y="-803.2" font-family="Courier,monospace" font-size="11.00">XPathNamespace</text>
</g>
<!-- \\w3c\\dom\\XPathNamespace&#45;&gt;\\w3c\\dom\\Node -->
<g id="edge16" class="edge"><title>\\w3c\\dom\\XPathNamespace&#45;&gt;\\w3c\\dom\\Node</title>
<path fill="none" stroke="black" d="M181.492,-793.168C173.022,-789.538 164.83,-784.904 158,-779 107.456,-735.305 79.4291,-659.083 67.3212,-618.055"/>
<polygon fill="none" stroke="black" points="70.6169,-616.848 64.5168,-608.186 63.8834,-618.762 70.6169,-616.848"/>
</g>
<!-- \\w3c\\dom\\XPathNSResolver -->
<g id="node24" class="node"><title>\\w3c\\dom\\XPathNSResolver</title>
<polygon fill="none" stroke="black" points="769.5,-392 651.5,-392 651.5,-356 769.5,-356 769.5,-392"/>
<text text-anchor="middle" x="710.5" y="-371.2" font-family="Courier,monospace" font-size="11.00">XPathNSResolver</text>
</g>
<!-- \\w3c\\dom\\XPathResult -->
<g id="node25" class="node"><title>\\w3c\\dom\\XPathResult</title>
<polygon fill="none" stroke="black" points="756,-338 665,-338 665,-302 756,-302 756,-338"/>
<text text-anchor="middle" x="710.5" y="-317.2" font-family="Courier,monospace" font-size="11.00">XPathResult</text>
</g>
<!-- \\w3c\\FileAPI\\Blob -->
<g id="node26" class="node"><title>\\w3c\\FileAPI\\Blob</title>
<polygon fill="none" stroke="black" points="737.5,-258 683.5,-258 683.5,-222 737.5,-222 737.5,-258"/>
<text text-anchor="middle" x="710.5" y="-237.2" font-family="Courier,monospace" font-size="11.00">Blob</text>
</g>
<!-- \\w3c\\FileAPI\\URL -->
<g id="node27" class="node"><title>\\w3c\\FileAPI\\URL</title>
<polygon fill="none" stroke="black" points="737.5,-204 683.5,-204 683.5,-168 737.5,-168 737.5,-204"/>
<text text-anchor="middle" x="710.5" y="-183.2" font-family="Courier,monospace" font-size="11.00">URL</text>
</g>
<!-- \\w3c\\InterfaceGen -->
<g id="node28" class="node"><title>\\w3c\\InterfaceGen</title>
<polygon fill="none" stroke="black" points="759.5,-150 661.5,-150 661.5,-114 759.5,-114 759.5,-150"/>
<text text-anchor="middle" x="710.5" y="-129.2" font-family="Courier,monospace" font-size="11.00">InterfaceGen</text>
</g>
<!-- \\w3c\\EventTarget -->
<g id="node29" class="node"><title>\\w3c\\EventTarget</title>
<polygon fill="none" stroke="black" points="282.5,-96 191.5,-96 191.5,-60 282.5,-60 282.5,-96"/>
<text text-anchor="middle" x="237" y="-75.2" font-family="Courier,monospace" font-size="11.00">EventTarget</text>
</g>
<!-- \\w3c\\XMLHttpRequest -->
<g id="node30" class="node"><title>\\w3c\\XMLHttpRequest</title>
<polygon fill="none" stroke="black" points="766,-96 655,-96 655,-60 766,-60 766,-96"/>
<text text-anchor="middle" x="710.5" y="-75.2" font-family="Courier,monospace" font-size="11.00">XMLHttpRequest</text>
</g>
<!-- \\w3c\\XMLHttpRequestEventTarget -->
<g id="node31" class="node"><title>\\w3c\\XMLHttpRequestEventTarget</title>
<polygon fill="none" stroke="black" points="573,-96 388,-96 388,-60 573,-60 573,-96"/>
<text text-anchor="middle" x="480.5" y="-75.2" font-family="Courier,monospace" font-size="11.00">XMLHttpRequestEventTarget</text>
</g>
<!-- \\w3c\\XMLHttpRequest&#45;&gt;\\w3c\\XMLHttpRequestEventTarget -->
<g id="edge17" class="edge"><title>\\w3c\\XMLHttpRequest&#45;&gt;\\w3c\\XMLHttpRequestEventTarget</title>
<path fill="none" stroke="black" d="M654.888,-78C633.352,-78 607.892,-78 583.209,-78"/>
<polygon fill="none" stroke="black" points="583.064,-74.5001 573.064,-78 583.064,-81.5001 583.064,-74.5001"/>
</g>
<!-- \\w3c\\XMLHttpRequestEventTarget&#45;&gt;\\w3c\\EventTarget -->
<g id="edge18" class="edge"><title>\\w3c\\XMLHttpRequestEventTarget&#45;&gt;\\w3c\\EventTarget</title>
<path fill="none" stroke="black" d="M387.855,-78C355.768,-78 320.765,-78 292.664,-78"/>
<polygon fill="none" stroke="black" points="292.641,-74.5001 282.641,-78 292.641,-81.5001 292.641,-74.5001"/>
</g>
</g>
</svg>
