<?xml version="1.0" encoding="UTF-8" standalone="no"?>
<!DOCTYPE svg PUBLIC "-//W3C//DTD SVG 1.1//EN"
 "http://www.w3.org/Graphics/SVG/1.1/DTD/svg11.dtd">
<!-- Generated by graphviz version 2.38.0 (20140413.2041)
 -->
<!-- Title: G Pages: 1 -->
<svg width="816pt" height="978pt"
 viewBox="0.00 0.00 816.00 978.00" xmlns="http://www.w3.org/2000/svg" xmlns:xlink="http://www.w3.org/1999/xlink">
<g id="graph0" class="graph" transform="scale(1 1) rotate(0) translate(4 974)">
<title>G</title>
<polygon fill="white" stroke="none" points="-4,4 -4,-974 812,-974 812,4 -4,4"/>
<g id="clust1" class="cluster"><title>cluster_Global</title>
<path fill="none" stroke="gray" d="M20,-44C20,-44 788,-44 788,-44 794,-44 800,-50 800,-56 800,-56 800,-950 800,-950 800,-956 794,-962 788,-962 788,-962 20,-962 20,-962 14,-962 8,-956 8,-950 8,-950 8,-56 8,-56 8,-50 14,-44 20,-44"/>
<text text-anchor="middle" x="404" y="-949.2" font-family="Times New Roman,serif" font-size="11.00" fill="gray">Global</text>
</g>
<g id="clust2" class="cluster"><title>cluster_\w3c</title>
<path fill="none" stroke="gray" d="M28,-52C28,-52 780,-52 780,-52 786,-52 792,-58 792,-64 792,-64 792,-922 792,-922 792,-928 786,-934 780,-934 780,-934 28,-934 28,-934 22,-934 16,-928 16,-922 16,-922 16,-64 16,-64 16,-58 22,-52 28,-52"/>
<text text-anchor="middle" x="404" y="-921.2" font-family="Times New Roman,serif" font-size="11.00" fill="gray">w3c</text>
</g>
<g id="clust4" class="cluster"><title>cluster_\w3c\FileAPI</title>
<path fill="none" stroke="gray" d="M687.5,-780C687.5,-780 733.5,-780 733.5,-780 739.5,-780 745.5,-786 745.5,-792 745.5,-792 745.5,-894 745.5,-894 745.5,-900 739.5,-906 733.5,-906 733.5,-906 687.5,-906 687.5,-906 681.5,-906 675.5,-900 675.5,-894 675.5,-894 675.5,-792 675.5,-792 675.5,-786 681.5,-780 687.5,-780"/>
<text text-anchor="middle" x="710.5" y="-893.2" font-family="Times New Roman,serif" font-size="11.00" fill="gray">FileAPI</text>
</g>
<g id="clust3" class="cluster"><title>cluster_\w3c\dom</title>
<path fill="none" stroke="gray" d="M36,-160C36,-160 772,-160 772,-160 778,-160 784,-166 784,-172 784,-172 784,-760 784,-760 784,-766 778,-772 772,-772 772,-772 36,-772 36,-772 30,-772 24,-766 24,-760 24,-760 24,-172 24,-172 24,-166 30,-160 36,-160"/>
<text text-anchor="middle" x="404" y="-759.2" font-family="Times New Roman,serif" font-size="11.00" fill="gray">dom</text>
</g>
<!-- \\w3c\\dom\\Attr -->
<g id="node1" class="node"><title>\\w3c\\dom\\Attr</title>
<polygon fill="none" stroke="black" points="264,-636 210,-636 210,-600 264,-600 264,-636"/>
<text text-anchor="middle" x="237" y="-615.2" font-family="Courier,monospace" font-size="11.00">Attr</text>
</g>
<!-- \\w3c\\dom\\Node -->
<g id="node20" class="node"><title>\\w3c\\dom\\Node</title>
<polygon fill="none" stroke="black" points="86,-474 32,-474 32,-438 86,-438 86,-474"/>
<text text-anchor="middle" x="59" y="-453.2" font-family="Courier,monospace" font-size="11.00">Node</text>
</g>
<!-- \\w3c\\dom\\Attr&#45;&gt;\\w3c\\dom\\Node -->
<g id="edge1" class="edge"><title>\\w3c\\dom\\Attr&#45;&gt;\\w3c\\dom\\Node</title>
<path fill="none" stroke="black" d="M209.886,-613.153C193.764,-609.196 173.309,-602.352 158,-591 119.165,-562.203 89.3065,-513.558 73.2307,-483.195"/>
<polygon fill="none" stroke="black" points="76.1968,-481.311 68.5017,-474.028 69.9758,-484.52 76.1968,-481.311"/>
</g>
<!-- \\w3c\\dom\\EntityReference -->
<g id="node2" class="node"><title>\\w3c\\dom\\EntityReference</title>
<polygon fill="none" stroke="black" points="296,-582 178,-582 178,-546 296,-546 296,-582"/>
<text text-anchor="middle" x="237" y="-561.2" font-family="Courier,monospace" font-size="11.00">EntityReference</text>
</g>
<!-- \\w3c\\dom\\EntityReference&#45;&gt;\\w3c\\dom\\Node -->
<g id="edge2" class="edge"><title>\\w3c\\dom\\EntityReference&#45;&gt;\\w3c\\dom\\Node</title>
<path fill="none" stroke="black" d="M177.898,-546.506C171.028,-543.679 164.246,-540.51 158,-537 131.06,-521.861 104.276,-499.055 85.5354,-481.496"/>
<polygon fill="none" stroke="black" points="87.6716,-478.697 78.0188,-474.33 82.8413,-483.763 87.6716,-478.697"/>
</g>
<!-- \\w3c\\dom\\XPathNamespace -->
<g id="node3" class="node"><title>\\w3c\\dom\\XPathNamespace</title>
<polygon fill="none" stroke="black" points="292.5,-528 181.5,-528 181.5,-492 292.5,-492 292.5,-528"/>
<text text-anchor="middle" x="237" y="-507.2" font-family="Courier,monospace" font-size="11.00">XPathNamespace</text>
</g>
<!-- \\w3c\\dom\\XPathNamespace&#45;&gt;\\w3c\\dom\\Node -->
<g id="edge3" class="edge"><title>\\w3c\\dom\\XPathNamespace&#45;&gt;\\w3c\\dom\\Node</title>
<path fill="none" stroke="black" d="M181.277,-493.21C153.429,-484.666 120.366,-474.521 95.8014,-466.985"/>
<polygon fill="none" stroke="black" points="96.7546,-463.616 86.1678,-464.029 94.7013,-470.308 96.7546,-463.616"/>
</g>
<!-- \\w3c\\dom\\ProcessingInstruction -->
<g id="node4" class="node"><title>\\w3c\\dom\\ProcessingInstruction</title>
<polygon fill="none" stroke="black" points="316,-474 158,-474 158,-438 316,-438 316,-474"/>
<text text-anchor="middle" x="237" y="-453.2" font-family="Courier,monospace" font-size="11.00">ProcessingInstruction</text>
</g>
<!-- \\w3c\\dom\\ProcessingInstruction&#45;&gt;\\w3c\\dom\\Node -->
<g id="edge4" class="edge"><title>\\w3c\\dom\\ProcessingInstruction&#45;&gt;\\w3c\\dom\\Node</title>
<path fill="none" stroke="black" d="M157.779,-456C136.391,-456 114.222,-456 96.4119,-456"/>
<polygon fill="none" stroke="black" points="96.2005,-452.5 86.2005,-456 96.2004,-459.5 96.2005,-452.5"/>
</g>
<!-- \\w3c\\dom\\DOMConfiguration -->
<g id="node5" class="node"><title>\\w3c\\dom\\DOMConfiguration</title>
<polygon fill="none" stroke="black" points="773,-744 648,-744 648,-708 773,-708 773,-744"/>
<text text-anchor="middle" x="710.5" y="-723.2" font-family="Courier,monospace" font-size="11.00">DOMConfiguration</text>
</g>
<!-- \\w3c\\dom\\XPathExpression -->
<g id="node6" class="node"><title>\\w3c\\dom\\XPathExpression</title>
<polygon fill="none" stroke="black" points="769.5,-690 651.5,-690 651.5,-654 769.5,-654 769.5,-690"/>
<text text-anchor="middle" x="710.5" y="-669.2" font-family="Courier,monospace" font-size="11.00">XPathExpression</text>
</g>
<!-- \\w3c\\dom\\Document -->
<g id="node7" class="node"><title>\\w3c\\dom\\Document</title>
<polygon fill="none" stroke="black" points="272.5,-420 201.5,-420 201.5,-384 272.5,-384 272.5,-420"/>
<text text-anchor="middle" x="237" y="-399.2" font-family="Courier,monospace" font-size="11.00">Document</text>
</g>
<!-- \\w3c\\dom\\Document&#45;&gt;\\w3c\\dom\\Node -->
<g id="edge5" class="edge"><title>\\w3c\\dom\\Document&#45;&gt;\\w3c\\dom\\Node</title>
<path fill="none" stroke="black" d="M201.228,-412.669C170.806,-422.003 126.791,-435.507 96.0078,-444.952"/>
<polygon fill="none" stroke="black" points="94.648,-441.708 86.1145,-447.988 96.7013,-448.4 94.648,-441.708"/>
</g>
<!-- \\w3c\\dom\\Notation -->
<g id="node8" class="node"><title>\\w3c\\dom\\Notation</title>
<polygon fill="none" stroke="black" points="272.5,-366 201.5,-366 201.5,-330 272.5,-330 272.5,-366"/>
<text text-anchor="middle" x="237" y="-345.2" font-family="Courier,monospace" font-size="11.00">Notation</text>
</g>
<!-- \\w3c\\dom\\Notation&#45;&gt;\\w3c\\dom\\Node -->
<g id="edge6" class="edge"><title>\\w3c\\dom\\Notation&#45;&gt;\\w3c\\dom\\Node</title>
<path fill="none" stroke="black" d="M201.462,-357.036C187.482,-361.428 171.492,-367.418 158,-375 131.06,-390.139 104.276,-412.945 85.5354,-430.504"/>
<polygon fill="none" stroke="black" points="82.8413,-428.237 78.0188,-437.67 87.6716,-433.303 82.8413,-428.237"/>
</g>
<!-- \\w3c\\dom\\XPathNSResolver -->
<g id="node9" class="node"><title>\\w3c\\dom\\XPathNSResolver</title>
<polygon fill="none" stroke="black" points="769.5,-636 651.5,-636 651.5,-600 769.5,-600 769.5,-636"/>
<text text-anchor="middle" x="710.5" y="-615.2" font-family="Courier,monospace" font-size="11.00">XPathNSResolver</text>
</g>
<!-- \\w3c\\dom\\XPathResult -->
<g id="node10" class="node"><title>\\w3c\\dom\\XPathResult</title>
<polygon fill="none" stroke="black" points="756,-582 665,-582 665,-546 756,-546 756,-582"/>
<text text-anchor="middle" x="710.5" y="-561.2" font-family="Courier,monospace" font-size="11.00">XPathResult</text>
</g>
<!-- \\w3c\\dom\\Entity -->
<g id="node11" class="node"><title>\\w3c\\dom\\Entity</title>
<polygon fill="none" stroke="black" points="265.5,-312 208.5,-312 208.5,-276 265.5,-276 265.5,-312"/>
<text text-anchor="middle" x="237" y="-291.2" font-family="Courier,monospace" font-size="11.00">Entity</text>
</g>
<!-- \\w3c\\dom\\Entity&#45;&gt;\\w3c\\dom\\Node -->
<g id="edge8" class="edge"><title>\\w3c\\dom\\Entity&#45;&gt;\\w3c\\dom\\Node</title>
<path fill="none" stroke="black" d="M208.42,-299.212C192.539,-303.219 172.849,-309.989 158,-321 119.165,-349.797 89.3065,-398.442 73.2307,-428.805"/>
<polygon fill="none" stroke="black" points="69.9758,-427.48 68.5017,-437.972 76.1968,-430.689 69.9758,-427.48"/>
</g>
<!-- \\w3c\\dom\\UserDataHandler -->
<g id="node12" class="node"><title>\\w3c\\dom\\UserDataHandler</title>
<polygon fill="none" stroke="black" points="769.5,-528 651.5,-528 651.5,-492 769.5,-492 769.5,-528"/>
<text text-anchor="middle" x="710.5" y="-507.2" font-family="Courier,monospace" font-size="11.00">UserDataHandler</text>
</g>
<!-- \\w3c\\dom\\DOMException -->
<g id="node13" class="node"><title>\\w3c\\dom\\DOMException</title>
<polygon fill="none" stroke="black" points="759.5,-366 661.5,-366 661.5,-330 759.5,-330 759.5,-366"/>
<text text-anchor="middle" x="710.5" y="-345.2" font-family="Courier,monospace" font-size="11.00">DOMException</text>
</g>
<!-- \\Throwable -->
<g id="node32" class="node"><title>\\Throwable</title>
<ellipse fill="none" stroke="black" cx="480.5" cy="-18" rx="51.9908" ry="18"/>
<text text-anchor="middle" x="480.5" y="-14.3" font-family="Times New Roman,serif" font-size="14.00" fill="gray">\Throwable</text>
</g>
<!-- \\w3c\\dom\\DOMException&#45;&gt;\\Throwable -->
<g id="edge9" class="edge"><title>\\w3c\\dom\\DOMException&#45;&gt;\\Throwable</title>
<path fill="none" stroke="black" d="M661.403,-333.882C655.26,-330.454 649.542,-326.22 645,-321 562.627,-226.341 659.075,-139.306 573,-48 563.862,-38.3066 551.547,-31.741 538.918,-27.2953"/>
<polygon fill="none" stroke="black" points="539.836,-23.9153 529.247,-24.2921 537.76,-30.6004 539.836,-23.9153"/>
</g>
<!-- \\w3c\\dom\\XPathEvaluator -->
<g id="node14" class="node"><title>\\w3c\\dom\\XPathEvaluator</title>
<polygon fill="none" stroke="black" points="766,-420 655,-420 655,-384 766,-384 766,-420"/>
<text text-anchor="middle" x="710.5" y="-399.2" font-family="Courier,monospace" font-size="11.00">XPathEvaluator</text>
</g>
<!-- \\w3c\\dom\\Text -->
<g id="node15" class="node"><title>\\w3c\\dom\\Text</title>
<polygon fill="none" stroke="black" points="507.5,-366 453.5,-366 453.5,-330 507.5,-330 507.5,-366"/>
<text text-anchor="middle" x="480.5" y="-345.2" font-family="Courier,monospace" font-size="11.00">Text</text>
</g>
<!-- \\w3c\\dom\\CharacterData -->
<g id="node23" class="node"><title>\\w3c\\dom\\CharacterData</title>
<polygon fill="none" stroke="black" points="289,-204 185,-204 185,-168 289,-168 289,-204"/>
<text text-anchor="middle" x="237" y="-183.2" font-family="Courier,monospace" font-size="11.00">CharacterData</text>
</g>
<!-- \\w3c\\dom\\Text&#45;&gt;\\w3c\\dom\\CharacterData -->
<g id="edge10" class="edge"><title>\\w3c\\dom\\Text&#45;&gt;\\w3c\\dom\\CharacterData</title>
<path fill="none" stroke="black" d="M461.99,-329.841C433.683,-301.398 375.056,-246.167 316,-213 310.506,-209.915 304.599,-207.093 298.582,-204.535"/>
<polygon fill="none" stroke="black" points="299.665,-201.198 289.08,-200.732 297.064,-207.697 299.665,-201.198"/>
</g>
<!-- \\w3c\\dom\\CDATASection -->
<g id="node16" class="node"><title>\\w3c\\dom\\CDATASection</title>
<polygon fill="none" stroke="black" points="759.5,-474 661.5,-474 661.5,-438 759.5,-438 759.5,-474"/>
<text text-anchor="middle" x="710.5" y="-453.2" font-family="Courier,monospace" font-size="11.00">CDATASection</text>
</g>
<!-- \\w3c\\dom\\CDATASection&#45;&gt;\\w3c\\dom\\Text -->
<g id="edge11" class="edge"><title>\\w3c\\dom\\CDATASection&#45;&gt;\\w3c\\dom\\Text</title>
<path fill="none" stroke="black" d="M665.274,-437.925C658.454,-435.011 651.516,-431.974 645,-429 600.28,-408.588 549.698,-383.159 516.794,-366.296"/>
<polygon fill="none" stroke="black" points="518.083,-363.023 507.589,-361.565 514.883,-369.249 518.083,-363.023"/>
</g>
<!-- \\w3c\\dom\\DocumentFragment -->
<g id="node17" class="node"><title>\\w3c\\dom\\DocumentFragment</title>
<polygon fill="none" stroke="black" points="299.5,-258 174.5,-258 174.5,-222 299.5,-222 299.5,-258"/>
<text text-anchor="middle" x="237" y="-237.2" font-family="Courier,monospace" font-size="11.00">DocumentFragment</text>
</g>
<!-- \\w3c\\dom\\DocumentFragment&#45;&gt;\\w3c\\dom\\Node -->
<g id="edge12" class="edge"><title>\\w3c\\dom\\DocumentFragment&#45;&gt;\\w3c\\dom\\Node</title>
<path fill="none" stroke="black" d="M174.325,-256.196C168.452,-259.214 162.878,-262.783 158,-267 107.456,-310.695 79.4291,-386.917 67.3212,-427.945"/>
<polygon fill="none" stroke="black" points="63.8834,-427.238 64.5168,-437.814 70.6169,-429.152 63.8834,-427.238"/>
</g>
<!-- \\w3c\\dom\\Comment -->
<g id="node18" class="node"><title>\\w3c\\dom\\Comment</title>
<polygon fill="none" stroke="black" points="512.5,-204 448.5,-204 448.5,-168 512.5,-168 512.5,-204"/>
<text text-anchor="middle" x="480.5" y="-183.2" font-family="Courier,monospace" font-size="11.00">Comment</text>
</g>
<!-- \\w3c\\dom\\Comment&#45;&gt;\\w3c\\dom\\CharacterData -->
<g id="edge14" class="edge"><title>\\w3c\\dom\\Comment&#45;&gt;\\w3c\\dom\\CharacterData</title>
<path fill="none" stroke="black" d="M448.422,-186C410.918,-186 346.973,-186 299.394,-186"/>
<polygon fill="none" stroke="black" points="299.202,-182.5 289.202,-186 299.202,-189.5 299.202,-182.5"/>
</g>
<!-- \\w3c\\dom\\DOMImplementation -->
<g id="node19" class="node"><title>\\w3c\\dom\\DOMImplementation</title>
<polygon fill="none" stroke="black" points="776,-312 645,-312 645,-276 776,-276 776,-312"/>
<text text-anchor="middle" x="710.5" y="-291.2" font-family="Courier,monospace" font-size="11.00">DOMImplementation</text>
</g>
<!-- \\w3c\\dom\\TypeInfo -->
<g id="node21" class="node"><title>\\w3c\\dom\\TypeInfo</title>
<polygon fill="none" stroke="black" points="746,-258 675,-258 675,-222 746,-222 746,-258"/>
<text text-anchor="middle" x="710.5" y="-237.2" font-family="Courier,monospace" font-size="11.00">TypeInfo</text>
</g>
<!-- \\w3c\\dom\\Element -->
<g id="node22" class="node"><title>\\w3c\\dom\\Element</title>
<polygon fill="none" stroke="black" points="269,-744 205,-744 205,-708 269,-708 269,-744"/>
<text text-anchor="middle" x="237" y="-723.2" font-family="Courier,monospace" font-size="11.00">Element</text>
</g>
<!-- \\w3c\\dom\\Element&#45;&gt;\\w3c\\dom\\Node -->
<g id="edge15" class="edge"><title>\\w3c\\dom\\Element&#45;&gt;\\w3c\\dom\\Node</title>
<path fill="none" stroke="black" d="M204.672,-721.455C188.976,-717.745 170.668,-711.049 158,-699 95.3557,-639.418 71.7122,-534.372 63.688,-484.206"/>
<polygon fill="none" stroke="black" points="67.1147,-483.456 62.1647,-474.089 60.1927,-484.499 67.1147,-483.456"/>
</g>
<!-- \\w3c\\dom\\CharacterData&#45;&gt;\\w3c\\dom\\Node -->
<g id="edge16" class="edge"><title>\\w3c\\dom\\CharacterData&#45;&gt;\\w3c\\dom\\Node</title>
<path fill="none" stroke="black" d="M184.626,-196.774C174.917,-200.643 165.476,-205.889 158,-213 95.3557,-272.582 71.7122,-377.628 63.688,-427.794"/>
<polygon fill="none" stroke="black" points="60.1927,-427.501 62.1647,-437.911 67.1147,-428.544 60.1927,-427.501"/>
</g>
<!-- \\w3c\\dom\\DocumentType -->
<g id="node24" class="node"><title>\\w3c\\dom\\DocumentType</title>
<polygon fill="none" stroke="black" points="286,-690 188,-690 188,-654 286,-654 286,-690"/>
<text text-anchor="middle" x="237" y="-669.2" font-family="Courier,monospace" font-size="11.00">DocumentType</text>
</g>
<!-- \\w3c\\dom\\DocumentType&#45;&gt;\\w3c\\dom\\Node -->
<g id="edge17" class="edge"><title>\\w3c\\dom\\DocumentType&#45;&gt;\\w3c\\dom\\Node</title>
<path fill="none" stroke="black" d="M187.982,-661.744C177.271,-657.809 166.564,-652.404 158,-645 107.456,-601.305 79.4291,-525.083 67.3212,-484.055"/>
<polygon fill="none" stroke="black" points="70.6169,-482.848 64.5168,-474.186 63.8834,-484.762 70.6169,-482.848"/>
</g>
<!-- \\w3c\\dom\\XPathException -->
<g id="node25" class="node"><title>\\w3c\\dom\\XPathException</title>
<polygon fill="none" stroke="black" points="766,-204 655,-204 655,-168 766,-168 766,-204"/>
<text text-anchor="middle" x="710.5" y="-183.2" font-family="Courier,monospace" font-size="11.00">XPathException</text>
</g>
<!-- \\w3c\\dom\\XPathException&#45;&gt;\\Throwable -->
<g id="edge18" class="edge"><title>\\w3c\\dom\\XPathException&#45;&gt;\\Throwable</title>
<path fill="none" stroke="black" d="M654.894,-170.536C651.395,-168.6 648.055,-166.431 645,-164 597.514,-126.224 620.71,-85.4935 573,-48 562.421,-39.6863 549.45,-33.6348 536.636,-29.2449"/>
<polygon fill="none" stroke="black" points="537.499,-25.8477 526.911,-26.2018 535.409,-32.5283 537.499,-25.8477"/>
</g>
<!-- \\w3c\\FileAPI\\Blob -->
<g id="node26" class="node"><title>\\w3c\\FileAPI\\Blob</title>
<polygon fill="none" stroke="black" points="737.5,-878 683.5,-878 683.5,-842 737.5,-842 737.5,-878"/>
<text text-anchor="middle" x="710.5" y="-857.2" font-family="Courier,monospace" font-size="11.00">Blob</text>
</g>
<!-- \\w3c\\FileAPI\\URL -->
<g id="node27" class="node"><title>\\w3c\\FileAPI\\URL</title>
<polygon fill="none" stroke="black" points="737.5,-824 683.5,-824 683.5,-788 737.5,-788 737.5,-824"/>
<text text-anchor="middle" x="710.5" y="-803.2" font-family="Courier,monospace" font-size="11.00">URL</text>
</g>
<!-- \\w3c\\InterfaceGen -->
<g id="node28" class="node"><title>\\w3c\\InterfaceGen</title>
<polygon fill="none" stroke="black" points="759.5,-150 661.5,-150 661.5,-114 759.5,-114 759.5,-150"/>
<text text-anchor="middle" x="710.5" y="-129.2" font-family="Courier,monospace" font-size="11.00">InterfaceGen</text>
</g>
<!-- \\w3c\\XMLHttpRequest -->
<g id="node29" class="node"><title>\\w3c\\XMLHttpRequest</title>
<polygon fill="none" stroke="black" points="766,-96 655,-96 655,-60 766,-60 766,-96"/>
<text text-anchor="middle" x="710.5" y="-75.2" font-family="Courier,monospace" font-size="11.00">XMLHttpRequest</text>
</g>
<!-- \\w3c\\XMLHttpRequestEventTarget -->
<g id="node30" class="node"><title>\\w3c\\XMLHttpRequestEventTarget</title>
<polygon fill="none" stroke="black" points="573,-96 388,-96 388,-60 573,-60 573,-96"/>
<text text-anchor="middle" x="480.5" y="-75.2" font-family="Courier,monospace" font-size="11.00">XMLHttpRequestEventTarget</text>
</g>
<!-- \\w3c\\XMLHttpRequest&#45;&gt;\\w3c\\XMLHttpRequestEventTarget -->
<g id="edge7" class="edge"><title>\\w3c\\XMLHttpRequest&#45;&gt;\\w3c\\XMLHttpRequestEventTarget</title>
<path fill="none" stroke="black" d="M654.888,-78C633.352,-78 607.892,-78 583.209,-78"/>
<polygon fill="none" stroke="black" points="583.064,-74.5001 573.064,-78 583.064,-81.5001 583.064,-74.5001"/>
</g>
<!-- \\w3c\\EventTarget -->
<g id="node31" class="node"><title>\\w3c\\EventTarget</title>
<polygon fill="none" stroke="black" points="282.5,-96 191.5,-96 191.5,-60 282.5,-60 282.5,-96"/>
<text text-anchor="middle" x="237" y="-75.2" font-family="Courier,monospace" font-size="11.00">EventTarget</text>
</g>
<!-- \\w3c\\XMLHttpRequestEventTarget&#45;&gt;\\w3c\\EventTarget -->
<g id="edge13" class="edge"><title>\\w3c\\XMLHttpRequestEventTarget&#45;&gt;\\w3c\\EventTarget</title>
<path fill="none" stroke="black" d="M387.855,-78C355.768,-78 320.765,-78 292.664,-78"/>
<polygon fill="none" stroke="black" points="292.641,-74.5001 282.641,-78 292.641,-81.5001 292.641,-74.5001"/>
</g>
</g>
</svg>
