<?xml version="1.0" encoding="UTF-8" standalone="no"?>
<!DOCTYPE svg PUBLIC "-//W3C//DTD SVG 1.1//EN"
 "http://www.w3.org/Graphics/SVG/1.1/DTD/svg11.dtd">
<!-- Generated by graphviz version 2.38.0 (20140413.2041)
 -->
<!-- Title: G Pages: 1 -->
<svg width="816pt" height="978pt"
 viewBox="0.00 0.00 816.00 978.00" xmlns="http://www.w3.org/2000/svg" xmlns:xlink="http://www.w3.org/1999/xlink">
<g id="graph0" class="graph" transform="scale(1 1) rotate(0) translate(4 974)">
<title>G</title>
<polygon fill="white" stroke="none" points="-4,4 -4,-974 812,-974 812,4 -4,4"/>
<g id="clust1" class="cluster"><title>cluster_Global</title>
<path fill="none" stroke="gray" d="M20,-44C20,-44 788,-44 788,-44 794,-44 800,-50 800,-56 800,-56 800,-950 800,-950 800,-956 794,-962 788,-962 788,-962 20,-962 20,-962 14,-962 8,-956 8,-950 8,-950 8,-56 8,-56 8,-50 14,-44 20,-44"/>
<text text-anchor="middle" x="404" y="-949.2" font-family="Times New Roman,serif" font-size="11.00" fill="gray">Global</text>
</g>
<g id="clust2" class="cluster"><title>cluster_\w3c</title>
<path fill="none" stroke="gray" d="M28,-52C28,-52 780,-52 780,-52 786,-52 792,-58 792,-64 792,-64 792,-922 792,-922 792,-928 786,-934 780,-934 780,-934 28,-934 28,-934 22,-934 16,-928 16,-922 16,-922 16,-64 16,-64 16,-58 22,-52 28,-52"/>
<text text-anchor="middle" x="404" y="-921.2" font-family="Times New Roman,serif" font-size="11.00" fill="gray">w3c</text>
</g>
<g id="clust3" class="cluster"><title>cluster_\w3c\dom</title>
<path fill="none" stroke="gray" d="M36,-294C36,-294 772,-294 772,-294 778,-294 784,-300 784,-306 784,-306 784,-894 784,-894 784,-900 778,-906 772,-906 772,-906 36,-906 36,-906 30,-906 24,-900 24,-894 24,-894 24,-306 24,-306 24,-300 30,-294 36,-294"/>
<text text-anchor="middle" x="404" y="-893.2" font-family="Times New Roman,serif" font-size="11.00" fill="gray">dom</text>
</g>
<g id="clust4" class="cluster"><title>cluster_\w3c\FileAPI</title>
<path fill="none" stroke="gray" d="M687.5,-160C687.5,-160 733.5,-160 733.5,-160 739.5,-160 745.5,-166 745.5,-172 745.5,-172 745.5,-274 745.5,-274 745.5,-280 739.5,-286 733.5,-286 733.5,-286 687.5,-286 687.5,-286 681.5,-286 675.5,-280 675.5,-274 675.5,-274 675.5,-172 675.5,-172 675.5,-166 681.5,-160 687.5,-160"/>
<text text-anchor="middle" x="710.5" y="-273.2" font-family="Times New Roman,serif" font-size="11.00" fill="gray">FileAPI</text>
</g>
<!-- \\w3c\\dom\\Attr -->
<g id="node1" class="node"><title>\\w3c\\dom\\Attr</title>
<polygon fill="none" stroke="black" points="264,-770 210,-770 210,-734 264,-734 264,-770"/>
<text text-anchor="middle" x="237" y="-749.2" font-family="Courier,monospace" font-size="11.00">Attr</text>
</g>
<!-- \\w3c\\dom\\Node -->
<g id="node20" class="node"><title>\\w3c\\dom\\Node</title>
<polygon fill="none" stroke="black" points="86,-608 32,-608 32,-572 86,-572 86,-608"/>
<text text-anchor="middle" x="59" y="-587.2" font-family="Courier,monospace" font-size="11.00">Node</text>
</g>
<!-- \\w3c\\dom\\Attr&#45;&gt;\\w3c\\dom\\Node -->
<g id="edge1" class="edge"><title>\\w3c\\dom\\Attr&#45;&gt;\\w3c\\dom\\Node</title>
<path fill="none" stroke="black" d="M209.886,-747.153C193.764,-743.196 173.309,-736.352 158,-725 119.165,-696.203 89.3065,-647.558 73.2307,-617.195"/>
<polygon fill="none" stroke="black" points="76.1968,-615.311 68.5017,-608.028 69.9758,-618.52 76.1968,-615.311"/>
</g>
<!-- \\w3c\\dom\\EntityReference -->
<g id="node2" class="node"><title>\\w3c\\dom\\EntityReference</title>
<polygon fill="none" stroke="black" points="296,-716 178,-716 178,-680 296,-680 296,-716"/>
<text text-anchor="middle" x="237" y="-695.2" font-family="Courier,monospace" font-size="11.00">EntityReference</text>
</g>
<!-- \\w3c\\dom\\EntityReference&#45;&gt;\\w3c\\dom\\Node -->
<g id="edge2" class="edge"><title>\\w3c\\dom\\EntityReference&#45;&gt;\\w3c\\dom\\Node</title>
<path fill="none" stroke="black" d="M177.898,-680.506C171.028,-677.679 164.246,-674.51 158,-671 131.06,-655.861 104.276,-633.055 85.5354,-615.496"/>
<polygon fill="none" stroke="black" points="87.6716,-612.697 78.0188,-608.33 82.8413,-617.763 87.6716,-612.697"/>
</g>
<!-- \\w3c\\dom\\XPathNamespace -->
<g id="node3" class="node"><title>\\w3c\\dom\\XPathNamespace</title>
<polygon fill="none" stroke="black" points="292.5,-662 181.5,-662 181.5,-626 292.5,-626 292.5,-662"/>
<text text-anchor="middle" x="237" y="-641.2" font-family="Courier,monospace" font-size="11.00">XPathNamespace</text>
</g>
<!-- \\w3c\\dom\\XPathNamespace&#45;&gt;\\w3c\\dom\\Node -->
<g id="edge3" class="edge"><title>\\w3c\\dom\\XPathNamespace&#45;&gt;\\w3c\\dom\\Node</title>
<path fill="none" stroke="black" d="M181.277,-627.21C153.429,-618.666 120.366,-608.521 95.8014,-600.985"/>
<polygon fill="none" stroke="black" points="96.7546,-597.616 86.1678,-598.029 94.7013,-604.308 96.7546,-597.616"/>
</g>
<!-- \\w3c\\dom\\ProcessingInstruction -->
<g id="node4" class="node"><title>\\w3c\\dom\\ProcessingInstruction</title>
<polygon fill="none" stroke="black" points="316,-608 158,-608 158,-572 316,-572 316,-608"/>
<text text-anchor="middle" x="237" y="-587.2" font-family="Courier,monospace" font-size="11.00">ProcessingInstruction</text>
</g>
<!-- \\w3c\\dom\\ProcessingInstruction&#45;&gt;\\w3c\\dom\\Node -->
<g id="edge4" class="edge"><title>\\w3c\\dom\\ProcessingInstruction&#45;&gt;\\w3c\\dom\\Node</title>
<path fill="none" stroke="black" d="M157.779,-590C136.391,-590 114.222,-590 96.4119,-590"/>
<polygon fill="none" stroke="black" points="96.2005,-586.5 86.2005,-590 96.2004,-593.5 96.2005,-586.5"/>
</g>
<!-- \\w3c\\dom\\DOMConfiguration -->
<g id="node5" class="node"><title>\\w3c\\dom\\DOMConfiguration</title>
<polygon fill="none" stroke="black" points="773,-878 648,-878 648,-842 773,-842 773,-878"/>
<text text-anchor="middle" x="710.5" y="-857.2" font-family="Courier,monospace" font-size="11.00">DOMConfiguration</text>
</g>
<!-- \\w3c\\dom\\XPathExpression -->
<g id="node6" class="node"><title>\\w3c\\dom\\XPathExpression</title>
<polygon fill="none" stroke="black" points="769.5,-824 651.5,-824 651.5,-788 769.5,-788 769.5,-824"/>
<text text-anchor="middle" x="710.5" y="-803.2" font-family="Courier,monospace" font-size="11.00">XPathExpression</text>
</g>
<!-- \\w3c\\dom\\Document -->
<g id="node7" class="node"><title>\\w3c\\dom\\Document</title>
<polygon fill="none" stroke="black" points="272.5,-554 201.5,-554 201.5,-518 272.5,-518 272.5,-554"/>
<text text-anchor="middle" x="237" y="-533.2" font-family="Courier,monospace" font-size="11.00">Document</text>
</g>
<!-- \\w3c\\dom\\Document&#45;&gt;\\w3c\\dom\\Node -->
<g id="edge5" class="edge"><title>\\w3c\\dom\\Document&#45;&gt;\\w3c\\dom\\Node</title>
<path fill="none" stroke="black" d="M201.228,-546.669C170.806,-556.003 126.791,-569.507 96.0078,-578.952"/>
<polygon fill="none" stroke="black" points="94.648,-575.708 86.1145,-581.988 96.7013,-582.4 94.648,-575.708"/>
</g>
<!-- \\w3c\\dom\\Notation -->
<g id="node8" class="node"><title>\\w3c\\dom\\Notation</title>
<polygon fill="none" stroke="black" points="272.5,-500 201.5,-500 201.5,-464 272.5,-464 272.5,-500"/>
<text text-anchor="middle" x="237" y="-479.2" font-family="Courier,monospace" font-size="11.00">Notation</text>
</g>
<!-- \\w3c\\dom\\Notation&#45;&gt;\\w3c\\dom\\Node -->
<g id="edge6" class="edge"><title>\\w3c\\dom\\Notation&#45;&gt;\\w3c\\dom\\Node</title>
<path fill="none" stroke="black" d="M201.462,-491.036C187.482,-495.428 171.492,-501.418 158,-509 131.06,-524.139 104.276,-546.945 85.5354,-564.504"/>
<polygon fill="none" stroke="black" points="82.8413,-562.237 78.0188,-571.67 87.6716,-567.303 82.8413,-562.237"/>
</g>
<!-- \\w3c\\dom\\XPathNSResolver -->
<g id="node9" class="node"><title>\\w3c\\dom\\XPathNSResolver</title>
<polygon fill="none" stroke="black" points="769.5,-770 651.5,-770 651.5,-734 769.5,-734 769.5,-770"/>
<text text-anchor="middle" x="710.5" y="-749.2" font-family="Courier,monospace" font-size="11.00">XPathNSResolver</text>
</g>
<!-- \\w3c\\dom\\XPathResult -->
<g id="node10" class="node"><title>\\w3c\\dom\\XPathResult</title>
<polygon fill="none" stroke="black" points="756,-716 665,-716 665,-680 756,-680 756,-716"/>
<text text-anchor="middle" x="710.5" y="-695.2" font-family="Courier,monospace" font-size="11.00">XPathResult</text>
</g>
<!-- \\w3c\\dom\\Entity -->
<g id="node11" class="node"><title>\\w3c\\dom\\Entity</title>
<polygon fill="none" stroke="black" points="265.5,-446 208.5,-446 208.5,-410 265.5,-410 265.5,-446"/>
<text text-anchor="middle" x="237" y="-425.2" font-family="Courier,monospace" font-size="11.00">Entity</text>
</g>
<!-- \\w3c\\dom\\Entity&#45;&gt;\\w3c\\dom\\Node -->
<g id="edge8" class="edge"><title>\\w3c\\dom\\Entity&#45;&gt;\\w3c\\dom\\Node</title>
<path fill="none" stroke="black" d="M208.42,-433.212C192.539,-437.219 172.849,-443.989 158,-455 119.165,-483.797 89.3065,-532.442 73.2307,-562.805"/>
<polygon fill="none" stroke="black" points="69.9758,-561.48 68.5017,-571.972 76.1968,-564.689 69.9758,-561.48"/>
</g>
<!-- \\w3c\\dom\\UserDataHandler -->
<g id="node12" class="node"><title>\\w3c\\dom\\UserDataHandler</title>
<polygon fill="none" stroke="black" points="769.5,-662 651.5,-662 651.5,-626 769.5,-626 769.5,-662"/>
<text text-anchor="middle" x="710.5" y="-641.2" font-family="Courier,monospace" font-size="11.00">UserDataHandler</text>
</g>
<!-- \\w3c\\dom\\DOMException -->
<g id="node13" class="node"><title>\\w3c\\dom\\DOMException</title>
<polygon fill="none" stroke="black" points="759.5,-500 661.5,-500 661.5,-464 759.5,-464 759.5,-500"/>
<text text-anchor="middle" x="710.5" y="-479.2" font-family="Courier,monospace" font-size="11.00">DOMException</text>
</g>
<!-- \\Throwable -->
<g id="node32" class="node"><title>\\Throwable</title>
<ellipse fill="none" stroke="black" cx="480.5" cy="-18" rx="51.9908" ry="18"/>
<text text-anchor="middle" x="480.5" y="-14.3" font-family="Times New Roman,serif" font-size="14.00" fill="gray">\Throwable</text>
</g>
<!-- \\w3c\\dom\\DOMException&#45;&gt;\\Throwable -->
<g id="edge9" class="edge"><title>\\w3c\\dom\\DOMException&#45;&gt;\\Throwable</title>
<path fill="none" stroke="black" d="M661.326,-468.397C655.114,-464.891 649.398,-460.498 645,-455 530.248,-311.554 693.37,-186.765 573,-48 564.271,-37.9368 552.11,-31.2317 539.5,-26.7691"/>
<polygon fill="none" stroke="black" points="540.407,-23.386 529.819,-23.7752 538.339,-30.0735 540.407,-23.386"/>
</g>
<!-- \\w3c\\dom\\XPathEvaluator -->
<g id="node14" class="node"><title>\\w3c\\dom\\XPathEvaluator</title>
<polygon fill="none" stroke="black" points="766,-554 655,-554 655,-518 766,-518 766,-554"/>
<text text-anchor="middle" x="710.5" y="-533.2" font-family="Courier,monospace" font-size="11.00">XPathEvaluator</text>
</g>
<!-- \\w3c\\dom\\Text -->
<g id="node15" class="node"><title>\\w3c\\dom\\Text</title>
<polygon fill="none" stroke="black" points="507.5,-500 453.5,-500 453.5,-464 507.5,-464 507.5,-500"/>
<text text-anchor="middle" x="480.5" y="-479.2" font-family="Courier,monospace" font-size="11.00">Text</text>
</g>
<!-- \\w3c\\dom\\CharacterData -->
<g id="node23" class="node"><title>\\w3c\\dom\\CharacterData</title>
<polygon fill="none" stroke="black" points="289,-338 185,-338 185,-302 289,-302 289,-338"/>
<text text-anchor="middle" x="237" y="-317.2" font-family="Courier,monospace" font-size="11.00">CharacterData</text>
</g>
<!-- \\w3c\\dom\\Text&#45;&gt;\\w3c\\dom\\CharacterData -->
<g id="edge10" class="edge"><title>\\w3c\\dom\\Text&#45;&gt;\\w3c\\dom\\CharacterData</title>
<path fill="none" stroke="black" d="M461.99,-463.841C433.683,-435.398 375.056,-380.167 316,-347 310.506,-343.915 304.599,-341.093 298.582,-338.535"/>
<polygon fill="none" stroke="black" points="299.665,-335.198 289.08,-334.732 297.064,-341.697 299.665,-335.198"/>
</g>
<!-- \\w3c\\dom\\CDATASection -->
<g id="node16" class="node"><title>\\w3c\\dom\\CDATASection</title>
<polygon fill="none" stroke="black" points="759.5,-608 661.5,-608 661.5,-572 759.5,-572 759.5,-608"/>
<text text-anchor="middle" x="710.5" y="-587.2" font-family="Courier,monospace" font-size="11.00">CDATASection</text>
</g>
<!-- \\w3c\\dom\\CDATASection&#45;&gt;\\w3c\\dom\\Text -->
<g id="edge11" class="edge"><title>\\w3c\\dom\\CDATASection&#45;&gt;\\w3c\\dom\\Text</title>
<path fill="none" stroke="black" d="M665.274,-571.925C658.454,-569.011 651.516,-565.974 645,-563 600.28,-542.588 549.698,-517.159 516.794,-500.296"/>
<polygon fill="none" stroke="black" points="518.083,-497.023 507.589,-495.565 514.883,-503.249 518.083,-497.023"/>
</g>
<!-- \\w3c\\dom\\DocumentFragment -->
<g id="node17" class="node"><title>\\w3c\\dom\\DocumentFragment</title>
<polygon fill="none" stroke="black" points="299.5,-392 174.5,-392 174.5,-356 299.5,-356 299.5,-392"/>
<text text-anchor="middle" x="237" y="-371.2" font-family="Courier,monospace" font-size="11.00">DocumentFragment</text>
</g>
<!-- \\w3c\\dom\\DocumentFragment&#45;&gt;\\w3c\\dom\\Node -->
<g id="edge12" class="edge"><title>\\w3c\\dom\\DocumentFragment&#45;&gt;\\w3c\\dom\\Node</title>
<path fill="none" stroke="black" d="M174.325,-390.196C168.452,-393.214 162.878,-396.783 158,-401 107.456,-444.695 79.4291,-520.917 67.3212,-561.945"/>
<polygon fill="none" stroke="black" points="63.8834,-561.238 64.5168,-571.814 70.6169,-563.152 63.8834,-561.238"/>
</g>
<!-- \\w3c\\dom\\Comment -->
<g id="node18" class="node"><title>\\w3c\\dom\\Comment</title>
<polygon fill="none" stroke="black" points="512.5,-338 448.5,-338 448.5,-302 512.5,-302 512.5,-338"/>
<text text-anchor="middle" x="480.5" y="-317.2" font-family="Courier,monospace" font-size="11.00">Comment</text>
</g>
<!-- \\w3c\\dom\\Comment&#45;&gt;\\w3c\\dom\\CharacterData -->
<g id="edge14" class="edge"><title>\\w3c\\dom\\Comment&#45;&gt;\\w3c\\dom\\CharacterData</title>
<path fill="none" stroke="black" d="M448.422,-320C410.918,-320 346.973,-320 299.394,-320"/>
<polygon fill="none" stroke="black" points="299.202,-316.5 289.202,-320 299.202,-323.5 299.202,-316.5"/>
</g>
<!-- \\w3c\\dom\\DOMImplementation -->
<g id="node19" class="node"><title>\\w3c\\dom\\DOMImplementation</title>
<polygon fill="none" stroke="black" points="776,-446 645,-446 645,-410 776,-410 776,-446"/>
<text text-anchor="middle" x="710.5" y="-425.2" font-family="Courier,monospace" font-size="11.00">DOMImplementation</text>
</g>
<!-- \\w3c\\dom\\TypeInfo -->
<g id="node21" class="node"><title>\\w3c\\dom\\TypeInfo</title>
<polygon fill="none" stroke="black" points="746,-392 675,-392 675,-356 746,-356 746,-392"/>
<text text-anchor="middle" x="710.5" y="-371.2" font-family="Courier,monospace" font-size="11.00">TypeInfo</text>
</g>
<!-- \\w3c\\dom\\Element -->
<g id="node22" class="node"><title>\\w3c\\dom\\Element</title>
<polygon fill="none" stroke="black" points="269,-878 205,-878 205,-842 269,-842 269,-878"/>
<text text-anchor="middle" x="237" y="-857.2" font-family="Courier,monospace" font-size="11.00">Element</text>
</g>
<!-- \\w3c\\dom\\Element&#45;&gt;\\w3c\\dom\\Node -->
<g id="edge15" class="edge"><title>\\w3c\\dom\\Element&#45;&gt;\\w3c\\dom\\Node</title>
<path fill="none" stroke="black" d="M204.672,-855.455C188.976,-851.745 170.668,-845.049 158,-833 95.3557,-773.418 71.7122,-668.372 63.688,-618.206"/>
<polygon fill="none" stroke="black" points="67.1147,-617.456 62.1647,-608.089 60.1927,-618.499 67.1147,-617.456"/>
</g>
<!-- \\w3c\\dom\\CharacterData&#45;&gt;\\w3c\\dom\\Node -->
<g id="edge16" class="edge"><title>\\w3c\\dom\\CharacterData&#45;&gt;\\w3c\\dom\\Node</title>
<path fill="none" stroke="black" d="M184.626,-330.774C174.917,-334.643 165.476,-339.889 158,-347 95.3557,-406.582 71.7122,-511.628 63.688,-561.794"/>
<polygon fill="none" stroke="black" points="60.1927,-561.501 62.1647,-571.911 67.1147,-562.544 60.1927,-561.501"/>
</g>
<!-- \\w3c\\dom\\DocumentType -->
<g id="node24" class="node"><title>\\w3c\\dom\\DocumentType</title>
<polygon fill="none" stroke="black" points="286,-824 188,-824 188,-788 286,-788 286,-824"/>
<text text-anchor="middle" x="237" y="-803.2" font-family="Courier,monospace" font-size="11.00">DocumentType</text>
</g>
<!-- \\w3c\\dom\\DocumentType&#45;&gt;\\w3c\\dom\\Node -->
<g id="edge17" class="edge"><title>\\w3c\\dom\\DocumentType&#45;&gt;\\w3c\\dom\\Node</title>
<path fill="none" stroke="black" d="M187.982,-795.744C177.271,-791.809 166.564,-786.404 158,-779 107.456,-735.305 79.4291,-659.083 67.3212,-618.055"/>
<polygon fill="none" stroke="black" points="70.6169,-616.848 64.5168,-608.186 63.8834,-618.762 70.6169,-616.848"/>
</g>
<!-- \\w3c\\dom\\XPathException -->
<g id="node25" class="node"><title>\\w3c\\dom\\XPathException</title>
<polygon fill="none" stroke="black" points="766,-338 655,-338 655,-302 766,-302 766,-338"/>
<text text-anchor="middle" x="710.5" y="-317.2" font-family="Courier,monospace" font-size="11.00">XPathException</text>
</g>
<!-- \\w3c\\dom\\XPathException&#45;&gt;\\Throwable -->
<g id="edge18" class="edge"><title>\\w3c\\dom\\XPathException&#45;&gt;\\Throwable</title>
<path fill="none" stroke="black" d="M658.942,-301.86C653.759,-298.506 648.955,-294.58 645,-290 571.658,-205.07 651.244,-128.437 573,-48 563.711,-38.4508 551.339,-31.9397 538.704,-27.5006"/>
<polygon fill="none" stroke="black" points="539.625,-24.1218 529.037,-24.4938 537.546,-30.8059 539.625,-24.1218"/>
</g>
<!-- \\w3c\\FileAPI\\Blob -->
<g id="node26" class="node"><title>\\w3c\\FileAPI\\Blob</title>
<polygon fill="none" stroke="black" points="737.5,-258 683.5,-258 683.5,-222 737.5,-222 737.5,-258"/>
<text text-anchor="middle" x="710.5" y="-237.2" font-family="Courier,monospace" font-size="11.00">Blob</text>
</g>
<!-- \\w3c\\FileAPI\\URL -->
<g id="node27" class="node"><title>\\w3c\\FileAPI\\URL</title>
<polygon fill="none" stroke="black" points="737.5,-204 683.5,-204 683.5,-168 737.5,-168 737.5,-204"/>
<text text-anchor="middle" x="710.5" y="-183.2" font-family="Courier,monospace" font-size="11.00">URL</text>
</g>
<!-- \\w3c\\InterfaceGen -->
<g id="node28" class="node"><title>\\w3c\\InterfaceGen</title>
<polygon fill="none" stroke="black" points="759.5,-150 661.5,-150 661.5,-114 759.5,-114 759.5,-150"/>
<text text-anchor="middle" x="710.5" y="-129.2" font-family="Courier,monospace" font-size="11.00">InterfaceGen</text>
</g>
<!-- \\w3c\\XMLHttpRequest -->
<g id="node29" class="node"><title>\\w3c\\XMLHttpRequest</title>
<polygon fill="none" stroke="black" points="766,-96 655,-96 655,-60 766,-60 766,-96"/>
<text text-anchor="middle" x="710.5" y="-75.2" font-family="Courier,monospace" font-size="11.00">XMLHttpRequest</text>
</g>
<!-- \\w3c\\XMLHttpRequestEventTarget -->
<g id="node30" class="node"><title>\\w3c\\XMLHttpRequestEventTarget</title>
<polygon fill="none" stroke="black" points="573,-96 388,-96 388,-60 573,-60 573,-96"/>
<text text-anchor="middle" x="480.5" y="-75.2" font-family="Courier,monospace" font-size="11.00">XMLHttpRequestEventTarget</text>
</g>
<!-- \\w3c\\XMLHttpRequest&#45;&gt;\\w3c\\XMLHttpRequestEventTarget -->
<g id="edge7" class="edge"><title>\\w3c\\XMLHttpRequest&#45;&gt;\\w3c\\XMLHttpRequestEventTarget</title>
<path fill="none" stroke="black" d="M654.888,-78C633.352,-78 607.892,-78 583.209,-78"/>
<polygon fill="none" stroke="black" points="583.064,-74.5001 573.064,-78 583.064,-81.5001 583.064,-74.5001"/>
</g>
<!-- \\w3c\\EventTarget -->
<g id="node31" class="node"><title>\\w3c\\EventTarget</title>
<polygon fill="none" stroke="black" points="282.5,-96 191.5,-96 191.5,-60 282.5,-60 282.5,-96"/>
<text text-anchor="middle" x="237" y="-75.2" font-family="Courier,monospace" font-size="11.00">EventTarget</text>
</g>
<!-- \\w3c\\XMLHttpRequestEventTarget&#45;&gt;\\w3c\\EventTarget -->
<g id="edge13" class="edge"><title>\\w3c\\XMLHttpRequestEventTarget&#45;&gt;\\w3c\\EventTarget</title>
<path fill="none" stroke="black" d="M387.855,-78C355.768,-78 320.765,-78 292.664,-78"/>
<polygon fill="none" stroke="black" points="292.641,-74.5001 282.641,-78 292.641,-81.5001 292.641,-74.5001"/>
</g>
</g>
</svg>
